<svg id="visual" viewBox="0 0 900 100" width="900" height="100" xmlns="http://www.w3.org/2000/svg" xmlns:xlink="http://www.w3.org/1999/xlink" version="1.1"><rect x="0" y="0" width="900" height="100" fill="#001534"></rect><path d="M0 22L75 36L150 34L225 34L300 28L375 51L450 35L525 37L600 28L675 50L750 21L825 27L900 22L900 101L825 101L750 101L675 101L600 101L525 101L450 101L375 101L300 101L225 101L150 101L75 101L0 101Z" fill="#001545"></path><path d="M0 59L75 63L150 52L225 37L300 60L375 47L450 53L525 36L600 57L675 51L750 36L825 47L900 54L900 101L825 101L750 101L675 101L600 101L525 101L450 101L375 101L300 101L225 101L150 101L75 101L0 101Z" fill="#001755"></path><path d="M0 55L75 62L150 59L225 70L300 53L375 71L450 54L525 55L600 61L675 54L750 52L825 55L900 58L900 101L825 101L750 101L675 101L600 101L525 101L450 101L375 101L300 101L225 101L150 101L75 101L0 101Z" fill="#001765"></path><path d="M0 88L75 70L150 87L225 74L300 82L375 71L450 83L525 84L600 77L675 87L750 72L825 72L900 89L900 101L825 101L750 101L675 101L600 101L525 101L450 101L375 101L300 101L225 101L150 101L75 101L0 101Z" fill="#001575"></path></svg>