<svg xmlns="http://www.w3.org/2000/svg" xmlns:xlink="http://www.w3.org/1999/xlink" viewBox="0 0 302.011 65.60021"><defs><style>.cls-1{fill:#471cff;}.cls-2{fill:url(#linear-gradient);}.cls-3{fill:url(#linear-gradient-2);}</style><linearGradient id="linear-gradient" x1="21.66667" y1="10.83333" x2="43.33333" y2="10.83333" gradientUnits="userSpaceOnUse"><stop offset="0" stop-color="#471cff"/><stop offset="1"/></linearGradient><linearGradient id="linear-gradient-2" x1="21.66667" y1="54.16667" x2="43.33333" y2="54.16667" gradientUnits="userSpaceOnUse"><stop offset="0"/><stop offset="1" stop-color="#471cff"/></linearGradient></defs><g id="Layer_2" data-name="Layer 2"><g id="Layer_1-2" data-name="Layer 1"><path d="M82.89333,65.00011v-42h6.8999v42Zm4.73974-15.83984v-6h10.5a8.049,8.049,0,0,0,3.81006-.87012,6.57864,6.57864,0,0,0,2.61035-2.46,7.8045,7.8045,0,0,0,0-7.5,6.58544,6.58544,0,0,0-2.61035-2.46,8.0548,8.0548,0,0,0-3.81006-.87012h-10.5v-6H98.49342a15.31858,15.31858,0,0,1,7.10987,1.62012,12.465,12.465,0,0,1,4.98,4.56006,12.78913,12.78913,0,0,1,1.83008,6.8999,12.788,12.788,0,0,1-1.83008,6.8999,12.45808,12.45808,0,0,1-4.98,4.56006,15.31858,15.31858,0,0,1-7.10987,1.62012Z"/><path d="M116.73268,65.00011V21.79992h6.59961V65.00011Z"/><path d="M141.21266,65.60021a12.97443,12.97443,0,0,1-7.05029-1.98,14.1573,14.1573,0,0,1-4.98-5.37012,16.77919,16.77919,0,0,1,0-15.24023,14.40146,14.40146,0,0,1,4.98-5.3999,12.83432,12.83432,0,0,1,7.05029-2.00977,11.90173,11.90173,0,0,1,5.84961,1.40967A10.76687,10.76687,0,0,1,151.11256,40.88a10.51578,10.51578,0,0,1,1.5,5.58008v8.28028a10.66449,10.66449,0,0,1-1.47021,5.57959,10.47174,10.47174,0,0,1-4.04981,3.87011A12.0683,12.0683,0,0,1,141.21266,65.60021ZM142.29225,59.36a7.6296,7.6296,0,0,0,5.91016-2.46,8.97111,8.97111,0,0,0,2.25-6.2998,9.82455,9.82455,0,0,0-1.02-4.56006,7.61042,7.61042,0,0,0-2.8501-3.08984,8.115,8.115,0,0,0-4.29-1.11035,7.99549,7.99549,0,0,0-4.23,1.11035,7.80517,7.80517,0,0,0-2.87988,3.08984,10.42867,10.42867,0,0,0,0,9.12012,7.80193,7.80193,0,0,0,2.87988,3.08984A7.98637,7.98637,0,0,0,142.29225,59.36Zm7.74024,5.64013V57.25988l1.14013-7.01953-1.14013-6.96045V36.20031h6.60009v28.7998Z"/><path d="M162.45143,65.00011V36.20031H169.051v28.7998Zm19.73975,0V48.38a6.47778,6.47778,0,0,0-1.83008-4.73974,6.32184,6.32184,0,0,0-4.71-1.86035,6.88128,6.88128,0,0,0-3.41992.84033,5.98309,5.98309,0,0,0-2.33985,2.33984A6.875,6.875,0,0,0,169.051,48.38l-2.57959-1.43994A11.69462,11.69462,0,0,1,167.91139,41.09a10.55415,10.55415,0,0,1,3.98975-4.02,11.26624,11.26624,0,0,1,5.73-1.46973,10.28213,10.28213,0,0,1,5.76025,1.6499,11.89751,11.89751,0,0,1,3.96,4.25977,11.09625,11.09625,0,0,1,1.44,5.43017V65.00011Z"/><path d="M207.39137,65.60021a15.50916,15.50916,0,0,1-7.77-1.9502,14.49417,14.49417,0,0,1-5.46-5.37011,15.721,15.721,0,0,1-.03027-15.32959,14.72806,14.72806,0,0,1,12.90039-7.3501,13.52508,13.52508,0,0,1,7.10986,1.85986,13.2512,13.2512,0,0,1,4.85987,5.1001,15.14532,15.14532,0,0,1,1.77,7.37988,12.324,12.324,0,0,1-.08985,1.47022q-.09009.75074-.27,1.6499H196.77126v-5.3999h20.22021l-2.46,2.15967a11.02749,11.02749,0,0,0-1.02-4.44,6.44283,6.44283,0,0,0-2.55029-2.75976,7.94086,7.94086,0,0,0-4.04981-.96,8.56438,8.56438,0,0,0-4.37988,1.08008,7.37881,7.37881,0,0,0-2.88037,3.02978,11.02373,11.02373,0,0,0,.06006,9.39014,7.61485,7.61485,0,0,0,3.06006,3.1499,9.159,9.159,0,0,0,4.56,1.10986,10.66843,10.66843,0,0,0,4.10987-.77978,8.55357,8.55357,0,0,0,3.21-2.28027l4.20019,4.26025A13.46594,13.46594,0,0,1,213.75124,64.34,16.25306,16.25306,0,0,1,207.39137,65.60021Z"/><path d="M224.551,65.00011V36.20031h6.59961v28.7998Zm6.59961-16.02L228.87086,47.84a14.85174,14.85174,0,0,1,2.43018-8.84961q2.42944-3.38965,7.34961-3.39014A8.79218,8.79218,0,0,1,245.79079,38.9L241.471,43.34a4.5582,4.5582,0,0,0-1.74023-1.19971,6.89608,6.89608,0,0,0-6.77979,1.37988Q231.15066,45.26111,231.15065,48.98009Z"/><path d="M256.83083,65.00011l-13.13965-28.7998H251.011l10.02,23.46h-4.32031l10.08008-23.46h7.02l-13.13965,28.7998Z"/><path d="M288.63112,65.60021a15.50913,15.50913,0,0,1-7.77-1.9502,14.4941,14.4941,0,0,1-5.46-5.37011,15.721,15.721,0,0,1-.03028-15.32959,14.72806,14.72806,0,0,1,12.9004-7.3501,13.52513,13.52513,0,0,1,7.10986,1.85986,13.2511,13.2511,0,0,1,4.85986,5.1001,15.14521,15.14521,0,0,1,1.77,7.37988,12.32392,12.32392,0,0,1-.08984,1.47022q-.09009.75074-.27,1.6499H278.011v-5.3999h20.22022l-2.46,2.15967a11.02749,11.02749,0,0,0-1.02-4.44,6.44285,6.44285,0,0,0-2.5503-2.75976,7.94079,7.94079,0,0,0-4.0498-.96,8.56433,8.56433,0,0,0-4.37988,1.08008,7.37877,7.37877,0,0,0-2.88038,3.02978,11.02373,11.02373,0,0,0,.06006,9.39014,7.615,7.615,0,0,0,3.06006,3.1499A9.15907,9.15907,0,0,0,288.57106,59.42a10.66838,10.66838,0,0,0,4.10986-.77978,8.55349,8.55349,0,0,0,3.21-2.28027l4.2002,4.26025A13.466,13.466,0,0,1,294.991,64.34,16.253,16.253,0,0,1,288.63112,65.60021Z"/><polygon class="cls-1" points="65 21.667 65 43.333 43.333 43.333 43.333 21.667 21.667 21.667 21.667 43.333 43.333 43.333 43.333 65 21.667 65 0 43.333 0 0 43.333 0 65 21.667"/><rect class="cls-2" x="21.66667" width="21.66667" height="21.66667"/><rect class="cls-3" x="21.66667" y="43.33333" width="21.66667" height="21.66667"/></g></g></svg>